# xmcd
# Copyright (C) 1995-1998 Ti Kan
#
# Track frame offsets:
#       150
#       11720
#       28831
#       40133
#       52900
#       70328
#       87808
#       119459
#       137137
#       165502
#       183135
#       204858
#       230516
#       256976
#       280210
#       299788
#
# Disc length: 4178 seconds
#
# Revision: 0
# Processed by: cddbd v1.5.2PL0 Copyright (c) Steve Scherf et al.
# Submitted via: CD-Import v1.0
#
DISCID=e3105010
DTITLE=Various Artist - Dub Anthology
DYEAR=07
DGENRE=
TTITLE0=Augustus Pablo - Cassava Piece
TTITLE1=King Tubby - Hungry Belly Dub
TTITLE2=Jacob Miller - Baby I Love You So
TTITLE3=The Revolutionaires - Goldmine
TTITLE4=Roots Manuva - Witness Dub
TTITLE5=Bush Chemist - East Of Jaro
TTITLE6=Junkyard Productions - Sister Let Him Go
TTITLE7=Iration Steppas - Wat Dem A Go When Di Right Time Come Dub
TTITLE8=High Tone - Bad Weather
TTITLE9=Zenzile - Smell The Roses (Feat. Jamika)
TTITLE10=Improvisators Dub Meets The Disciples - Bass-Batt
TTITLE11=Hybrid Sound System - L'uzure
TTITLE12=Dubmatix - Champion Sound
TTITLE13=Noiseshaper - Me Done (Feat. Ari Up)
TTITLE14=Molecule - Babygirl (Feat. Zigzag
TTITLE15=X-Echo - Listen Dis!
EXTD=
EXTT0=
EXTT1=
EXTT2=
EXTT3=
EXTT4=
EXTT5=
EXTT6=
EXTT7=
EXTT8=
EXTT9=
EXTT10=
EXTT11=
EXTT12=
EXTT13=
EXTT14=
EXTT15=
PLAYORDER=
